<svg width="39" height="43" viewBox="0 0 39 43" fill="none" xmlns="http://www.w3.org/2000/svg">
<rect width="39" height="40" fill="#FF4E44"/>
<g filter="url(#filter0_d_5_134)">
<path d="M34 34L27.1529 27.1407M30.9474 17.9737C30.9474 21.4145 29.5805 24.7144 27.1475 27.1475C24.7144 29.5805 21.4145 30.9474 17.9737 30.9474C14.5328 30.9474 11.2329 29.5805 8.7999 27.1475C6.36687 24.7144 5 21.4145 5 17.9737C5 14.5328 6.36687 11.2329 8.7999 8.7999C11.2329 6.36687 14.5328 5 17.9737 5C21.4145 5 24.7144 6.36687 27.1475 8.7999C29.5805 11.2329 30.9474 14.5328 30.9474 17.9737V17.9737Z" stroke="white" stroke-width="2" stroke-linecap="round" shape-rendering="crispEdges"/>
</g>
<defs>
<filter id="filter0_d_5_134" x="0" y="4" width="39" height="39" filterUnits="userSpaceOnUse" color-interpolation-filters="sRGB">
<feFlood flood-opacity="0" result="BackgroundImageFix"/>
<feColorMatrix in="SourceAlpha" type="matrix" values="0 0 0 0 0 0 0 0 0 0 0 0 0 0 0 0 0 0 127 0" result="hardAlpha"/>
<feOffset dy="4"/>
<feGaussianBlur stdDeviation="2"/>
<feComposite in2="hardAlpha" operator="out"/>
<feColorMatrix type="matrix" values="0 0 0 0 0 0 0 0 0 0 0 0 0 0 0 0 0 0 0.25 0"/>
<feBlend mode="normal" in2="BackgroundImageFix" result="effect1_dropShadow_5_134"/>
<feBlend mode="normal" in="SourceGraphic" in2="effect1_dropShadow_5_134" result="shape"/>
</filter>
</defs>
</svg>
