<svg width="1366" height="3916" viewBox="0 0 1366 3916" fill="none" xmlns="http://www.w3.org/2000/svg">
<rect width="1366" height="3916" fill="#F5F5F5"/>
<rect y="2116" width="1366" height="1300" fill="#282634"/>
<rect y="3416" width="1366" height="500" fill="#201F29"/>
<rect y="768" width="1366" height="768" fill="#282634"/>
<rect width="1366" height="768" fill="#282634"/>
<rect y="1036" width="1366" height="1080" fill="#201F29"/>
<path d="M1365.5 3416.38C1298 3285.54 1051 3102.38 603 3416.38H1365.5Z" fill="#201F29"/>
<path d="M0 3416C53.3804 3546.55 248.713 3729.32 603 3416H0Z" fill="#282634"/>
<path d="M0 2116C53.3804 2246.55 248.713 2429.32 603 2116H0Z" fill="#201F29"/>
<ellipse cx="268" cy="2011" rx="83" ry="74" fill="#282634"/>
<ellipse cx="1223" cy="676" rx="83" ry="74" fill="#201F29"/>
<ellipse cx="670.5" cy="1892" rx="133.5" ry="119" fill="#282634"/>
<ellipse cx="193.5" cy="318" rx="133.5" ry="119" fill="#201F29"/>
<path d="M604 0C671.456 129.795 918.294 311.509 1366 0L604 0Z" fill="#201F29"/>
<path d="M0 1036C67.5 1166.83 314.5 1350 762.5 1036L0 1036Z" fill="#282634"/>
<path d="M1366 1036C1312.62 905.45 1117.29 722.68 763 1036H1366Z" fill="#201F29"/>
<path d="M1366 2116C1298.5 1985.17 1051.5 1802 603.5 2116H1366Z" fill="#282634"/>
</svg>
